<svg width="21" height="19" viewBox="0 0 21 19" fill="none" xmlns="http://www.w3.org/2000/svg">
<path d="M3.40652 15C2.54457 15 1.71792 14.6576 1.10843 14.0481C0.498934 13.4386 0.156525 12.612 0.156525 11.75V3.25C0.156525 2.38805 0.498934 1.5614 1.10843 0.951903C1.71792 0.34241 2.54457 0 3.40652 0H16.9065C17.3333 0 17.7559 0.0840637 18.1502 0.247391C18.5446 0.410719 18.9028 0.650112 19.2046 0.951903C19.5064 1.25369 19.7458 1.61197 19.9091 2.00628C20.0725 2.40059 20.1565 2.8232 20.1565 3.25V11.75C20.1565 12.1768 20.0725 12.5994 19.9091 12.9937C19.7458 13.388 19.5064 13.7463 19.2046 14.0481C18.9028 14.3499 18.5446 14.5893 18.1502 14.7526C17.7559 14.9159 17.3333 15 16.9065 15H11.1685L6.15652 18.75C5.97081 18.889 5.75008 18.9736 5.51903 18.9943C5.28799 19.015 5.05574 18.971 4.84828 18.8672C4.64082 18.7634 4.46634 18.6039 4.34434 18.4066C4.22235 18.2093 4.15766 17.982 4.15752 17.75V15H3.40752H3.40652ZM10.6705 13.5H16.9065C17.3707 13.5 17.8158 13.3156 18.144 12.9874C18.4721 12.6592 18.6565 12.2141 18.6565 11.75V3.25C18.6565 2.78587 18.4721 2.34075 18.144 2.01256C17.8158 1.68437 17.3707 1.5 16.9065 1.5H3.40652C2.9424 1.5 2.49728 1.68437 2.16909 2.01256C1.8409 2.34075 1.65652 2.78587 1.65652 3.25V11.75C1.65652 12.716 2.44052 13.5 3.40652 13.5H5.65552V17.25L10.6705 13.5Z" fill="#4D4D4D"/>
</svg>
